<?xml version="1.0" encoding="UTF-8"?>
<svg id="Diseño" xmlns="http://www.w3.org/2000/svg" xmlns:xlink="http://www.w3.org/1999/xlink" viewBox="0 0 11.42 19.76">
  <defs>
    <style>
      .cls-1 {
        fill: #111820;
      }

      .cls-2 {
        fill: url(#Degradado_sin_nombre_13);
      }
    </style>
    <linearGradient id="Degradado_sin_nombre_13" data-name="Degradado sin nombre 13" x1="-116.85" y1="9.88" x2="11.42" y2="9.88" gradientUnits="userSpaceOnUse">
      <stop offset="0" stop-color="#ff9f50"/>
      <stop offset=".26" stop-color="#ed5f55"/>
      <stop offset=".27" stop-color="#ec5b56"/>
      <stop offset=".6" stop-color="#ffb1af"/>
      <stop offset=".66" stop-color="#dbaaa6"/>
      <stop offset=".81" stop-color="#7f9891"/>
      <stop offset="1" stop-color="#008073"/>
    </linearGradient>
  </defs>
  <g>
    <polygon class="cls-1" points="6.84 9.02 11.21 2.95 9.02 2.95 5.77 7.54 2.5 2.95 .33 2.95 4.7 9.02 .1 15.42 2.29 15.42 5.77 10.49 9.23 15.42 11.42 15.42 6.84 9.02"/>
    <polygon class="cls-1" points="6.84 9.02 11.21 2.95 9.02 2.95 5.77 7.54 2.5 2.95 .33 2.95 4.7 9.02 .1 15.42 2.29 15.42 5.77 10.49 9.23 15.42 11.42 15.42 6.84 9.02"/>
  </g>
  <g>
    <polygon class="cls-2" points="6.84 9.02 11.21 2.95 9.02 2.95 5.77 7.54 2.5 2.95 .33 2.95 4.7 9.02 .1 15.42 2.29 15.42 5.77 10.49 9.23 15.42 11.42 15.42 6.84 9.02"/>
    <polygon class="cls-2" points="6.84 9.02 11.21 2.95 9.02 2.95 5.77 7.54 2.5 2.95 .33 2.95 4.7 9.02 .1 15.42 2.29 15.42 5.77 10.49 9.23 15.42 11.42 15.42 6.84 9.02"/>
    <polygon class="cls-2" points="6.84 9.02 11.21 2.95 9.02 2.95 5.77 7.54 2.5 2.95 .33 2.95 4.7 9.02 .1 15.42 2.29 15.42 5.77 10.49 9.23 15.42 11.42 15.42 6.84 9.02"/>
  </g>
</svg>