<?xml version="1.0" encoding="UTF-8"?>
<svg id="_1920x980" data-name="1920x980" xmlns="http://www.w3.org/2000/svg" viewBox="0 0 43.55 36.15">
  <defs>
    <style>
      .cls-1 {
        fill: #ec5b56;
      }
    </style>
  </defs>
  <path class="cls-1" d="m34.22,0c-5.13,0-9.3,4.15-9.33,9.28v17.59c-.03,1.7-1.41,3.07-3.12,3.07s-3.1-1.37-3.12-3.07h0V9.28c-.03-5.13-4.19-9.28-9.33-9.28S.03,4.15,0,9.28h.01v26.87h6.2V9.28h-.01c.03-1.7,1.41-3.07,3.12-3.07s3.1,1.37,3.12,3.07v17.73h0c.1,5.06,4.23,9.14,9.32,9.14s9.18-4.03,9.32-9.06h0V9.28c.03-1.7,1.41-3.07,3.12-3.07s3.1,1.37,3.12,3.07v26.87h6.2V9.28c-.03-5.13-4.19-9.28-9.33-9.28Z"/>
</svg>