<?xml version="1.0" encoding="UTF-8"?>
<svg id="Diseño" xmlns="http://www.w3.org/2000/svg" xmlns:xlink="http://www.w3.org/1999/xlink" viewBox="0 0 102.51 19.76">
  <defs>
    <style>
      .cls-1 {
        fill: #111820;
      }

      .cls-2 {
        fill: url(#Degradado_sin_nombre_13);
      }
    </style>
    <linearGradient id="Degradado_sin_nombre_13" data-name="Degradado sin nombre 13" x1="0" y1="9.88" x2="128.26" y2="9.88" gradientUnits="userSpaceOnUse">
      <stop offset="0" stop-color="#ff9f50"/>
      <stop offset=".26" stop-color="#ed5f55"/>
      <stop offset=".27" stop-color="#ec5b56"/>
      <stop offset=".6" stop-color="#ffb1af"/>
      <stop offset=".66" stop-color="#dbaaa6"/>
      <stop offset=".81" stop-color="#7f9891"/>
      <stop offset="1" stop-color="#008073"/>
    </linearGradient>
  </defs>
  <g>
    <g>
      <path class="cls-1" d="m5.99,2.94c-1.86,0-3.38.92-4.11,2.42v-2.3H0v16.68h1.88v-6.91c.61,1.46,2,2.61,4.06,2.61,2.61,0,5.45-1.9,5.45-6.27s-2.84-6.23-5.4-6.23Zm-.35,10.93c-2.02,0-3.85-1.53-3.85-4.7s1.83-4.65,3.85-4.65,3.92,1.39,3.92,4.65-1.88,4.7-3.92,4.7Z"/>
      <path class="cls-1" d="m5.99,2.94c-1.86,0-3.38.92-4.11,2.42v-2.3H0v16.68h1.88v-6.91c.61,1.46,2,2.61,4.06,2.61,2.61,0,5.45-1.9,5.45-6.27s-2.84-6.23-5.4-6.23Zm-.35,10.93c-2.02,0-3.85-1.53-3.85-4.7s1.83-4.65,3.85-4.65,3.92,1.39,3.92,4.65-1.88,4.7-3.92,4.7Z"/>
    </g>
    <g>
      <path class="cls-1" d="m15.42,6.02v-2.96h-1.88v12.22h1.88v-7.14c.4-2.14,1.83-3.5,4.32-3.5.17,0,.38,0,.73.02v-1.67c-.35-.05-.61-.05-.87-.05-2.35,0-3.78,1.43-4.18,3.08Z"/>
      <path class="cls-1" d="m15.42,6.02v-2.96h-1.88v12.22h1.88v-7.14c.4-2.14,1.83-3.5,4.32-3.5.17,0,.38,0,.73.02v-1.67c-.35-.05-.61-.05-.87-.05-2.35,0-3.78,1.43-4.18,3.08Z"/>
    </g>
    <g>
      <path class="cls-1" d="m27.54,2.94c-2.68,0-5.66,1.93-5.66,6.23s2.98,6.27,5.66,6.27,5.69-1.93,5.69-6.27-3.01-6.23-5.69-6.23Zm0,10.93c-1.97,0-3.85-1.46-3.85-4.7s1.88-4.65,3.85-4.65,3.85,1.43,3.85,4.65-1.88,4.7-3.85,4.7Z"/>
      <path class="cls-1" d="m27.54,2.94c-2.68,0-5.66,1.93-5.66,6.23s2.98,6.27,5.66,6.27,5.69-1.93,5.69-6.27-3.01-6.23-5.69-6.23Zm0,10.93c-1.97,0-3.85-1.46-3.85-4.7s1.88-4.65,3.85-4.65,3.85,1.43,3.85,4.65-1.88,4.7-3.85,4.7Z"/>
    </g>
    <g>
      <path class="cls-1" d="m40.26,13.11l-3.78-10.06h-1.95l4.65,11.63c.19.47.16.73-.09,1.41-.54,1.36-1.48,2.21-3.24,1.97v1.65c2.33.28,3.78-.71,4.93-3.55l5.26-13.11h-1.93l-3.85,10.06Z"/>
      <path class="cls-1" d="m40.26,13.11l-3.78-10.06h-1.95l4.65,11.63c.19.47.16.73-.09,1.41-.54,1.36-1.48,2.21-3.24,1.97v1.65c2.33.28,3.78-.71,4.93-3.55l5.26-13.11h-1.93l-3.85,10.06Z"/>
    </g>
    <g>
      <path class="cls-1" d="m53.02,2.94c-2.89,0-5.69,1.95-5.69,6.25s2.68,6.25,5.71,6.25c2.44,0,4.04-.87,5.01-2.89h-1.74c-.73,1.03-1.64,1.43-3.17,1.43-2.21,0-3.76-1.25-3.97-4.14h9.28c.02-.21.02-.4.02-.59,0-4.37-2.51-6.32-5.45-6.32Zm-3.85,5.62c.21-2.82,1.81-4.16,3.85-4.16s3.6,1.43,3.64,4.16h-7.5Z"/>
      <path class="cls-1" d="m53.02,2.94c-2.89,0-5.69,1.95-5.69,6.25s2.68,6.25,5.71,6.25c2.44,0,4.04-.87,5.01-2.89h-1.74c-.73,1.03-1.64,1.43-3.17,1.43-2.21,0-3.76-1.25-3.97-4.14h9.28c.02-.21.02-.4.02-.59,0-4.37-2.51-6.32-5.45-6.32Zm-3.85,5.62c.21-2.82,1.81-4.16,3.85-4.16s3.6,1.43,3.64,4.16h-7.5Z"/>
    </g>
    <g>
      <path class="cls-1" d="m65.73,13.86c-2.09,0-3.92-1.46-3.92-4.68s1.81-4.7,3.9-4.7c1.72,0,2.75.78,3.27,2.21h1.74c-.71-2.82-2.8-3.76-5.03-3.76-2.8,0-5.69,1.88-5.69,6.25s2.91,6.25,5.71,6.25c2.23,0,4.39-.94,5.1-3.85h-1.74c-.54,1.53-1.57,2.28-3.34,2.28Z"/>
      <path class="cls-1" d="m65.73,13.86c-2.09,0-3.92-1.46-3.92-4.68s1.81-4.7,3.9-4.7c1.72,0,2.75.78,3.27,2.21h1.74c-.71-2.82-2.8-3.76-5.03-3.76-2.8,0-5.69,1.88-5.69,6.25s2.91,6.25,5.71,6.25c2.23,0,4.39-.94,5.1-3.85h-1.74c-.54,1.53-1.57,2.28-3.34,2.28Z"/>
    </g>
    <g>
      <path class="cls-1" d="m75.7,12.85V4.56h2.37v-1.5h-2.37V0h-1.88v3.05h-1.88v1.5h1.88v8.48c0,1.9,1.13,2.37,2.54,2.37.71,0,1.39-.09,1.9-.28v-1.43c-.52.14-.92.19-1.34.19-.92,0-1.22-.38-1.22-1.03Z"/>
      <path class="cls-1" d="m75.7,12.85V4.56h2.37v-1.5h-2.37V0h-1.88v3.05h-1.88v1.5h1.88v8.48c0,1.9,1.13,2.37,2.54,2.37.71,0,1.39-.09,1.9-.28v-1.43c-.52.14-.92.19-1.34.19-.92,0-1.22-.38-1.22-1.03Z"/>
    </g>
    <g>
      <path class="cls-1" d="m85.45,2.94c-2.68,0-5.66,1.93-5.66,6.23s2.98,6.27,5.66,6.27,5.69-1.93,5.69-6.27-3.01-6.23-5.69-6.23Zm0,10.93c-1.97,0-3.85-1.46-3.85-4.7s1.88-4.65,3.85-4.65,3.85,1.43,3.85,4.65-1.88,4.7-3.85,4.7Z"/>
      <path class="cls-1" d="m85.45,2.94c-2.68,0-5.66,1.93-5.66,6.23s2.98,6.27,5.66,6.27,5.69-1.93,5.69-6.27-3.01-6.23-5.69-6.23Zm0,10.93c-1.97,0-3.85-1.46-3.85-4.7s1.88-4.65,3.85-4.65,3.85,1.43,3.85,4.65-1.88,4.7-3.85,4.7Z"/>
    </g>
    <g>
      <path class="cls-1" d="m98.85,8.67l-1.97-.47c-1.5-.35-2.11-.89-2.11-1.88,0-1.1.99-1.93,2.75-1.93,1.53,0,2.58.52,3.01,1.79h1.74c-.49-2.12-2.21-3.24-4.75-3.24-2.75,0-4.54,1.27-4.54,3.34,0,1.72,1.1,2.7,3.36,3.24l2.14.49c1.36.33,2.16.66,2.16,1.88,0,1.41-1.34,2.07-3.01,2.07s-2.96-.56-3.31-2.26h-1.76c.31,2.58,2.35,3.74,5.05,3.74s4.91-1.03,4.91-3.52c0-2.26-1.41-2.73-3.67-3.24Z"/>
      <path class="cls-1" d="m98.85,8.67l-1.97-.47c-1.5-.35-2.11-.89-2.11-1.88,0-1.1.99-1.93,2.75-1.93,1.53,0,2.58.52,3.01,1.79h1.74c-.49-2.12-2.21-3.24-4.75-3.24-2.75,0-4.54,1.27-4.54,3.34,0,1.72,1.1,2.7,3.36,3.24l2.14.49c1.36.33,2.16.66,2.16,1.88,0,1.41-1.34,2.07-3.01,2.07s-2.96-.56-3.31-2.26h-1.76c.31,2.58,2.35,3.74,5.05,3.74s4.91-1.03,4.91-3.52c0-2.26-1.41-2.73-3.67-3.24Z"/>
    </g>
  </g>
  <g>
    <g>
      <path class="cls-2" d="m5.99,2.94c-1.86,0-3.38.92-4.11,2.42v-2.3H0v16.68h1.88v-6.91c.61,1.46,2,2.61,4.06,2.61,2.61,0,5.45-1.9,5.45-6.27s-2.84-6.23-5.4-6.23Zm-.35,10.93c-2.02,0-3.85-1.53-3.85-4.7s1.83-4.65,3.85-4.65,3.92,1.39,3.92,4.65-1.88,4.7-3.92,4.7Z"/>
      <path class="cls-2" d="m5.99,2.94c-1.86,0-3.38.92-4.11,2.42v-2.3H0v16.68h1.88v-6.91c.61,1.46,2,2.61,4.06,2.61,2.61,0,5.45-1.9,5.45-6.27s-2.84-6.23-5.4-6.23Zm-.35,10.93c-2.02,0-3.85-1.53-3.85-4.7s1.83-4.65,3.85-4.65,3.92,1.39,3.92,4.65-1.88,4.7-3.92,4.7Z"/>
      <path class="cls-2" d="m5.99,2.94c-1.86,0-3.38.92-4.11,2.42v-2.3H0v16.68h1.88v-6.91c.61,1.46,2,2.61,4.06,2.61,2.61,0,5.45-1.9,5.45-6.27s-2.84-6.23-5.4-6.23Zm-.35,10.93c-2.02,0-3.85-1.53-3.85-4.7s1.83-4.65,3.85-4.65,3.92,1.39,3.92,4.65-1.88,4.7-3.92,4.7Z"/>
    </g>
    <g>
      <path class="cls-2" d="m15.42,6.02v-2.96h-1.88v12.22h1.88v-7.14c.4-2.14,1.83-3.5,4.32-3.5.17,0,.38,0,.73.02v-1.67c-.35-.05-.61-.05-.87-.05-2.35,0-3.78,1.43-4.18,3.08Z"/>
      <path class="cls-2" d="m15.42,6.02v-2.96h-1.88v12.22h1.88v-7.14c.4-2.14,1.83-3.5,4.32-3.5.17,0,.38,0,.73.02v-1.67c-.35-.05-.61-.05-.87-.05-2.35,0-3.78,1.43-4.18,3.08Z"/>
      <path class="cls-2" d="m15.42,6.02v-2.96h-1.88v12.22h1.88v-7.14c.4-2.14,1.83-3.5,4.32-3.5.17,0,.38,0,.73.02v-1.67c-.35-.05-.61-.05-.87-.05-2.35,0-3.78,1.43-4.18,3.08Z"/>
    </g>
    <g>
      <path class="cls-2" d="m27.54,2.94c-2.68,0-5.66,1.93-5.66,6.23s2.98,6.27,5.66,6.27,5.69-1.93,5.69-6.27-3.01-6.23-5.69-6.23Zm0,10.93c-1.97,0-3.85-1.46-3.85-4.7s1.88-4.65,3.85-4.65,3.85,1.43,3.85,4.65-1.88,4.7-3.85,4.7Z"/>
      <path class="cls-2" d="m27.54,2.94c-2.68,0-5.66,1.93-5.66,6.23s2.98,6.27,5.66,6.27,5.69-1.93,5.69-6.27-3.01-6.23-5.69-6.23Zm0,10.93c-1.97,0-3.85-1.46-3.85-4.7s1.88-4.65,3.85-4.65,3.85,1.43,3.85,4.65-1.88,4.7-3.85,4.7Z"/>
      <path class="cls-2" d="m27.54,2.94c-2.68,0-5.66,1.93-5.66,6.23s2.98,6.27,5.66,6.27,5.69-1.93,5.69-6.27-3.01-6.23-5.69-6.23Zm0,10.93c-1.97,0-3.85-1.46-3.85-4.7s1.88-4.65,3.85-4.65,3.85,1.43,3.85,4.65-1.88,4.7-3.85,4.7Z"/>
    </g>
    <g>
      <path class="cls-2" d="m40.26,13.11l-3.78-10.06h-1.95l4.65,11.63c.19.47.16.73-.09,1.41-.54,1.36-1.48,2.21-3.24,1.97v1.65c2.33.28,3.78-.71,4.93-3.55l5.26-13.11h-1.93l-3.85,10.06Z"/>
      <path class="cls-2" d="m40.26,13.11l-3.78-10.06h-1.95l4.65,11.63c.19.47.16.73-.09,1.41-.54,1.36-1.48,2.21-3.24,1.97v1.65c2.33.28,3.78-.71,4.93-3.55l5.26-13.11h-1.93l-3.85,10.06Z"/>
      <path class="cls-2" d="m40.26,13.11l-3.78-10.06h-1.95l4.65,11.63c.19.47.16.73-.09,1.41-.54,1.36-1.48,2.21-3.24,1.97v1.65c2.33.28,3.78-.71,4.93-3.55l5.26-13.11h-1.93l-3.85,10.06Z"/>
    </g>
    <g>
      <path class="cls-2" d="m53.02,2.94c-2.89,0-5.69,1.95-5.69,6.25s2.68,6.25,5.71,6.25c2.44,0,4.04-.87,5.01-2.89h-1.74c-.73,1.03-1.64,1.43-3.17,1.43-2.21,0-3.76-1.25-3.97-4.14h9.28c.02-.21.02-.4.02-.59,0-4.37-2.51-6.32-5.45-6.32Zm-3.85,5.62c.21-2.82,1.81-4.16,3.85-4.16s3.6,1.43,3.64,4.16h-7.5Z"/>
      <path class="cls-2" d="m53.02,2.94c-2.89,0-5.69,1.95-5.69,6.25s2.68,6.25,5.71,6.25c2.44,0,4.04-.87,5.01-2.89h-1.74c-.73,1.03-1.64,1.43-3.17,1.43-2.21,0-3.76-1.25-3.97-4.14h9.28c.02-.21.02-.4.02-.59,0-4.37-2.51-6.32-5.45-6.32Zm-3.85,5.62c.21-2.82,1.81-4.16,3.85-4.16s3.6,1.43,3.64,4.16h-7.5Z"/>
      <path class="cls-2" d="m53.02,2.94c-2.89,0-5.69,1.95-5.69,6.25s2.68,6.25,5.71,6.25c2.44,0,4.04-.87,5.01-2.89h-1.74c-.73,1.03-1.64,1.43-3.17,1.43-2.21,0-3.76-1.25-3.97-4.14h9.28c.02-.21.02-.4.02-.59,0-4.37-2.51-6.32-5.45-6.32Zm-3.85,5.62c.21-2.82,1.81-4.16,3.85-4.16s3.6,1.43,3.64,4.16h-7.5Z"/>
    </g>
    <g>
      <path class="cls-2" d="m65.73,13.86c-2.09,0-3.92-1.46-3.92-4.68s1.81-4.7,3.9-4.7c1.72,0,2.75.78,3.27,2.21h1.74c-.71-2.82-2.8-3.76-5.03-3.76-2.8,0-5.69,1.88-5.69,6.25s2.91,6.25,5.71,6.25c2.23,0,4.39-.94,5.1-3.85h-1.74c-.54,1.53-1.57,2.28-3.34,2.28Z"/>
      <path class="cls-2" d="m65.73,13.86c-2.09,0-3.92-1.46-3.92-4.68s1.81-4.7,3.9-4.7c1.72,0,2.75.78,3.27,2.21h1.74c-.71-2.82-2.8-3.76-5.03-3.76-2.8,0-5.69,1.88-5.69,6.25s2.91,6.25,5.71,6.25c2.23,0,4.39-.94,5.1-3.85h-1.74c-.54,1.53-1.57,2.28-3.34,2.28Z"/>
      <path class="cls-2" d="m65.73,13.86c-2.09,0-3.92-1.46-3.92-4.68s1.81-4.7,3.9-4.7c1.72,0,2.75.78,3.27,2.21h1.74c-.71-2.82-2.8-3.76-5.03-3.76-2.8,0-5.69,1.88-5.69,6.25s2.91,6.25,5.71,6.25c2.23,0,4.39-.94,5.1-3.85h-1.74c-.54,1.53-1.57,2.28-3.34,2.28Z"/>
    </g>
    <g>
      <path class="cls-2" d="m75.7,12.85V4.56h2.37v-1.5h-2.37V0h-1.88v3.05h-1.88v1.5h1.88v8.48c0,1.9,1.13,2.37,2.54,2.37.71,0,1.39-.09,1.9-.28v-1.43c-.52.14-.92.19-1.34.19-.92,0-1.22-.38-1.22-1.03Z"/>
      <path class="cls-2" d="m75.7,12.85V4.56h2.37v-1.5h-2.37V0h-1.88v3.05h-1.88v1.5h1.88v8.48c0,1.9,1.13,2.37,2.54,2.37.71,0,1.39-.09,1.9-.28v-1.43c-.52.14-.92.19-1.34.19-.92,0-1.22-.38-1.22-1.03Z"/>
      <path class="cls-2" d="m75.7,12.85V4.56h2.37v-1.5h-2.37V0h-1.88v3.05h-1.88v1.5h1.88v8.48c0,1.9,1.13,2.37,2.54,2.37.71,0,1.39-.09,1.9-.28v-1.43c-.52.14-.92.19-1.34.19-.92,0-1.22-.38-1.22-1.03Z"/>
    </g>
    <g>
      <path class="cls-2" d="m85.45,2.94c-2.68,0-5.66,1.93-5.66,6.23s2.98,6.27,5.66,6.27,5.69-1.93,5.69-6.27-3.01-6.23-5.69-6.23Zm0,10.93c-1.97,0-3.85-1.46-3.85-4.7s1.88-4.65,3.85-4.65,3.85,1.43,3.85,4.65-1.88,4.7-3.85,4.7Z"/>
      <path class="cls-2" d="m85.45,2.94c-2.68,0-5.66,1.93-5.66,6.23s2.98,6.27,5.66,6.27,5.69-1.93,5.69-6.27-3.01-6.23-5.69-6.23Zm0,10.93c-1.97,0-3.85-1.46-3.85-4.7s1.88-4.65,3.85-4.65,3.85,1.43,3.85,4.65-1.88,4.7-3.85,4.7Z"/>
      <path class="cls-2" d="m85.45,2.94c-2.68,0-5.66,1.93-5.66,6.23s2.98,6.27,5.66,6.27,5.69-1.93,5.69-6.27-3.01-6.23-5.69-6.23Zm0,10.93c-1.97,0-3.85-1.46-3.85-4.7s1.88-4.65,3.85-4.65,3.85,1.43,3.85,4.65-1.88,4.7-3.85,4.7Z"/>
    </g>
    <g>
      <path class="cls-2" d="m98.85,8.67l-1.97-.47c-1.5-.35-2.11-.89-2.11-1.88,0-1.1.99-1.93,2.75-1.93,1.53,0,2.58.52,3.01,1.79h1.74c-.49-2.12-2.21-3.24-4.75-3.24-2.75,0-4.54,1.27-4.54,3.34,0,1.72,1.1,2.7,3.36,3.24l2.14.49c1.36.33,2.16.66,2.16,1.88,0,1.41-1.34,2.07-3.01,2.07s-2.96-.56-3.31-2.26h-1.76c.31,2.58,2.35,3.74,5.05,3.74s4.91-1.03,4.91-3.52c0-2.26-1.41-2.73-3.67-3.24Z"/>
      <path class="cls-2" d="m98.85,8.67l-1.97-.47c-1.5-.35-2.11-.89-2.11-1.88,0-1.1.99-1.93,2.75-1.93,1.53,0,2.58.52,3.01,1.79h1.74c-.49-2.12-2.21-3.24-4.75-3.24-2.75,0-4.54,1.27-4.54,3.34,0,1.72,1.1,2.7,3.36,3.24l2.14.49c1.36.33,2.16.66,2.16,1.88,0,1.41-1.34,2.07-3.01,2.07s-2.96-.56-3.31-2.26h-1.76c.31,2.58,2.35,3.74,5.05,3.74s4.91-1.03,4.91-3.52c0-2.26-1.41-2.73-3.67-3.24Z"/>
      <path class="cls-2" d="m98.85,8.67l-1.97-.47c-1.5-.35-2.11-.89-2.11-1.88,0-1.1.99-1.93,2.75-1.93,1.53,0,2.58.52,3.01,1.79h1.74c-.49-2.12-2.21-3.24-4.75-3.24-2.75,0-4.54,1.27-4.54,3.34,0,1.72,1.1,2.7,3.36,3.24l2.14.49c1.36.33,2.16.66,2.16,1.88,0,1.41-1.34,2.07-3.01,2.07s-2.96-.56-3.31-2.26h-1.76c.31,2.58,2.35,3.74,5.05,3.74s4.91-1.03,4.91-3.52c0-2.26-1.41-2.73-3.67-3.24Z"/>
    </g>
  </g>
</svg>