<?xml version="1.0" encoding="utf-8"?>
<!-- Generator: Adobe Illustrator 27.5.0, SVG Export Plug-In . SVG Version: 6.00 Build 0)  -->
<svg version="1.1" id="Capa_1" xmlns="http://www.w3.org/2000/svg" xmlns:xlink="http://www.w3.org/1999/xlink" x="0px" y="0px"
	 viewBox="0 0 398.38 266.44" style="enable-background:new 0 0 398.38 266.44;" xml:space="preserve">
<style type="text/css">
	.st0{fill:#FFFFFF;}
</style>
<g id="_x31_920x980">
	<g>
		<g>
			<path class="st0" d="M130.93,0l104.11,260.97h-25.76l-27.7-70.4H51.7l-27.35,70.4H0L103.4,0H130.93z M59.29,168.87H173.1
				L116.81,21.7L59.29,168.87z"/>
			<path class="st0" d="M396.44,132.34v98.64c0,3.06,0.18,7.03,0.53,11.91s0.82,10.91,1.41,18.09h-22.41l-0.71-26.82h-0.88
				c-2.94,8.24-10.26,15.68-21.97,22.32s-23.62,9.97-35.73,9.97c-17.88,0-32.41-5.21-43.58-15.62
				c-11.18-10.41-16.76-23.91-16.76-40.5c0-11.65,3.2-22.03,9.62-31.14c6.41-9.11,15-16.11,25.76-21
				c10.76-4.88,27.79-7.56,51.08-8.03l31.94-0.53v-11.82c0-14.58-3.32-25.52-9.97-32.82c-6.65-7.29-17.62-10.94-32.91-10.94
				c-27.53,0-42.35,10.47-44.47,31.41h-23.12c2.47-17.17,9.56-30.02,21.26-38.55s27.26-12.79,46.67-12.79c20.94,0,36.88,5,47.82,15
				C390.97,99.11,396.44,113.52,396.44,132.34z M360.44,230.71c9.29-10.53,14.23-25.97,14.82-46.32c0-2.35-0.09-4.73-0.26-7.15
				c-0.18-2.41-0.26-4.97-0.26-7.68l-21.53,0.35c-26.23,0.47-45.03,3.88-56.38,10.23c-11.35,6.35-17.03,16.41-17.03,30.17
				c0,11.06,3.71,19.85,11.12,26.38s17.29,9.79,29.64,9.79C337.86,246.5,351.15,241.24,360.44,230.71z"/>
		</g>
	</g>
</g>
<g id="Guías">
</g>
</svg>
