<?xml version="1.0" encoding="utf-8"?>
<!-- Generator: Adobe Illustrator 27.5.0, SVG Export Plug-In . SVG Version: 6.00 Build 0)  -->
<svg version="1.1" id="Capa_1" xmlns="http://www.w3.org/2000/svg" xmlns:xlink="http://www.w3.org/1999/xlink" x="0px" y="0px"
	 viewBox="0 0 408.92 247.17" style="enable-background:new 0 0 408.92 247.17;" xml:space="preserve">
<style type="text/css">
	.st0{fill:#FFFFFF;}
</style>
<g id="_x31_920x980">
	<g>
		<path class="st0" d="M158.5,191.94h-89L52.78,241.6H0L86.22,0h57.04l85.56,241.6h-54.75L158.5,191.94z M144.4,150.3l-30.16-95.07
			L83.1,150.3H144.4z"/>
		<path class="st0" d="M260.42,82.28c12.35-15.74,33.55-23.6,63.6-23.6c19.56,0,36.93,3.88,52.12,11.64s22.78,22.4,22.78,43.93
			v81.95c0,5.68,0.11,12.57,0.33,20.65c0.33,6.12,1.26,10.27,2.79,12.46s3.82,3.99,6.88,5.41v6.88h-50.81
			c-1.42-3.61-2.4-6.99-2.95-10.16c-0.55-3.17-0.98-6.77-1.31-10.82c-6.45,6.99-13.88,12.95-22.29,17.87
			c-10.05,5.79-21.42,8.69-34.09,8.69c-16.17,0-29.53-4.62-40.08-13.85c-10.55-9.23-15.82-22.32-15.82-39.26
			c0-21.96,8.47-37.86,25.41-47.7c9.29-5.35,22.95-9.18,40.98-11.47l15.9-1.97c8.63-1.09,14.81-2.46,18.52-4.1
			c6.66-2.84,10-7.27,10-13.28c0-7.32-2.54-12.38-7.62-15.16c-5.08-2.79-12.54-4.18-22.37-4.18c-11.04,0-18.85,2.73-23.44,8.19
			c-3.28,4.04-5.47,9.51-6.56,16.39h-45.08C248.29,105.18,252.66,92.34,260.42,82.28z M295.17,207.84
			c4.37,3.61,9.72,5.41,16.06,5.41c10.05,0,19.31-2.95,27.78-8.85c8.47-5.9,12.87-16.66,13.19-32.29v-17.37
			c-2.95,1.86-5.93,3.36-8.93,4.51c-3.01,1.15-7.13,2.21-12.38,3.2l-10.49,1.97c-9.83,1.75-16.88,3.88-21.14,6.39
			c-7.21,4.26-10.82,10.87-10.82,19.83C288.45,198.6,290.69,204.34,295.17,207.84z"/>
	</g>
</g>
<g id="Guías">
</g>
</svg>
