<?xml version="1.0" encoding="utf-8"?>
<!-- Generator: Adobe Illustrator 27.5.0, SVG Export Plug-In . SVG Version: 6.00 Build 0)  -->
<svg version="1.1" id="Capa_1" xmlns="http://www.w3.org/2000/svg" xmlns:xlink="http://www.w3.org/1999/xlink" x="0px" y="0px"
	 viewBox="0 0 397.85 249.56" style="enable-background:new 0 0 397.85 249.56;" xml:space="preserve">
<style type="text/css">
	.st0{fill:#FFFFFF;}
</style>
<g id="_x31_920x980">
	<g>
		<path class="st0" d="M112.54,56.38l-75.5,177.55c-1.63,4.43-4.14,7.86-7.51,10.31c-3.38,2.45-7.05,3.67-11.01,3.67
			c-6.29,0-10.96-1.75-13.98-5.24c-3.03-3.5-4.54-7.8-4.54-12.93c0-2.1,0.35-4.31,1.05-6.64L88.08,14.09
			c1.86-4.66,4.72-8.27,8.56-10.84c3.84-2.56,7.98-3.61,12.41-3.15c4.19,0,8.09,1.22,11.71,3.67c3.61,2.45,6.23,5.89,7.86,10.31
			L214.6,218.9c1.16,3.03,1.75,5.83,1.75,8.39c0,6.29-2.04,11.3-6.12,15.03s-8.56,5.59-13.46,5.59c-4.19,0-7.98-1.28-11.36-3.84
			s-6-6.06-7.86-10.49l-75.14-175.1L112.54,56.38z M47.88,191.29L67.1,151.1h94.37l6.64,40.19H47.88z"/>
		<path class="st0" d="M378.07,66.62c5.71,0,10.43,1.87,14.17,5.6c3.73,3.74,5.6,8.57,5.6,14.5v139.43c0,5.72-1.87,10.5-5.6,14.34
			c-3.74,3.85-8.46,5.77-14.17,5.77c-5.72,0-10.44-1.92-14.17-5.77c-3.74-3.84-5.6-8.62-5.6-14.34V210l7.25,2.97
			c0,2.86-1.54,6.32-4.61,10.38c-3.08,4.07-7.25,8.08-12.53,12.03c-5.27,3.96-11.49,7.31-18.62,10.05
			c-7.14,2.75-14.89,4.12-23.24,4.12c-15.16,0-28.9-3.9-41.2-11.7c-12.31-7.8-22.03-18.57-29.17-32.3s-10.71-29.5-10.71-47.3
			c0-18.02,3.57-33.89,10.71-47.63c7.14-13.73,16.75-24.5,28.84-32.3c12.08-7.8,25.49-11.7,40.21-11.7c9.45,0,18.13,1.43,26.04,4.29
			s14.78,6.48,20.6,10.88c5.82,4.4,10.33,8.85,13.51,13.35c3.18,4.51,4.78,8.3,4.78,11.37l-11.87,4.29V86.73
			c0-5.71,1.86-10.49,5.6-14.34C367.63,68.55,372.35,66.62,378.07,66.62z M311.49,213.31c9.67,0,18.13-2.42,25.38-7.25
			s12.91-11.42,16.98-19.78c4.06-8.35,6.1-17.69,6.1-28.02c0-10.55-2.03-19.99-6.1-28.35c-4.07-8.35-9.72-14.94-16.98-19.78
			c-7.25-4.83-15.71-7.25-25.38-7.25c-9.45,0-17.8,2.42-25.05,7.25c-7.25,4.84-12.91,11.43-16.98,19.78s-6.1,17.8-6.1,28.35
			c0,10.33,2.03,19.67,6.1,28.02c4.06,8.35,9.72,14.95,16.98,19.78C293.69,210.89,302.04,213.31,311.49,213.31z"/>
	</g>
</g>
<g id="Guías">
</g>
</svg>
